<mxfile host="app.diagrams.net" agent="Mozilla/5.0 (Windows NT 10.0; Win64; x64) AppleWebKit/537.36 (KHTML, like Gecko) Chrome/129.0.0.0 Safari/537.36 Edg/129.0.0.0" version="24.7.17">
  <diagram id="piDafpqhtRUU5qUU-vj8" name="Page-1">
    <mxGraphModel dx="2084" dy="1130" grid="1" gridSize="10" guides="1" tooltips="1" connect="1" arrows="1" fold="1" page="1" pageScale="1" pageWidth="827" pageHeight="1169" math="0" shadow="0">
      <root>
        <mxCell id="0" />
        <mxCell id="1" parent="0" />
        <mxCell id="8962rQQDY3VNNf6We3Pp-1" value="" style="strokeWidth=1;shadow=0;dashed=0;align=center;html=1;shape=mxgraph.mockup.containers.browserWindow;rSize=0;strokeColor2=#008cff;strokeColor3=#c4c4c4;mainText=,;recursiveResize=0;strokeColor=#FFFFFF;fontColor=#FFFFFF;textShadow=1;" parent="1" vertex="1">
          <mxGeometry x="20" y="50" width="950" height="620" as="geometry" />
        </mxCell>
        <mxCell id="8962rQQDY3VNNf6We3Pp-2" value="Arte7" style="strokeWidth=1;shadow=0;dashed=0;align=center;html=1;shape=mxgraph.mockup.containers.anchor;fontSize=17;fontColor=#666666;align=left;" parent="8962rQQDY3VNNf6We3Pp-1" vertex="1">
          <mxGeometry x="60" y="12" width="110" height="26" as="geometry" />
        </mxCell>
        <mxCell id="8962rQQDY3VNNf6We3Pp-3" value="https://www.arte7.com/movies/Frankenstein/Platforms" style="strokeWidth=1;shadow=0;dashed=0;align=center;html=1;shape=mxgraph.mockup.containers.anchor;rSize=0;fontSize=17;fontColor=#666666;align=left;" parent="8962rQQDY3VNNf6We3Pp-1" vertex="1">
          <mxGeometry x="130" y="60" width="250" height="26" as="geometry" />
        </mxCell>
        <mxCell id="X4MMAZx1POmpQhxmDy6j-1" value="" style="rounded=0;whiteSpace=wrap;html=1;fillColor=#454545;fontColor=#ffffff;strokeColor=#314354;" vertex="1" parent="8962rQQDY3VNNf6We3Pp-1">
          <mxGeometry y="110" width="950" height="50" as="geometry" />
        </mxCell>
        <mxCell id="X4MMAZx1POmpQhxmDy6j-2" value="arte7" style="text;html=1;align=center;verticalAlign=middle;whiteSpace=wrap;rounded=0;fontColor=#ffffff;" vertex="1" parent="8962rQQDY3VNNf6We3Pp-1">
          <mxGeometry x="10" y="120" width="60" height="30" as="geometry" />
        </mxCell>
        <mxCell id="X4MMAZx1POmpQhxmDy6j-3" value="Movies&lt;span style=&quot;font-family: monospace; font-size: 0px; text-align: start; text-wrap: nowrap;&quot;&gt;%3CmxGraphModel%3E%3Croot%3E%3CmxCell%20id%3D%220%22%2F%3E%3CmxCell%20id%3D%221%22%20parent%3D%220%22%2F%3E%3CmxCell%20id%3D%222%22%20value%3D%22arte7%22%20style%3D%22text%3Bhtml%3D1%3Balign%3Dcenter%3BverticalAlign%3Dmiddle%3BwhiteSpace%3Dwrap%3Brounded%3D0%3BfontColor%3D%23ffffff%3B%22%20vertex%3D%221%22%20parent%3D%221%22%3E%3CmxGeometry%20x%3D%2220%22%20y%3D%22130%22%20width%3D%2260%22%20height%3D%2230%22%20as%3D%22geometry%22%2F%3E%3C%2FmxCell%3E%3C%2Froot%3E%3C%2FmxGraphModel%3E&lt;/span&gt;" style="text;html=1;align=center;verticalAlign=middle;whiteSpace=wrap;rounded=0;fontColor=#999999;" vertex="1" parent="8962rQQDY3VNNf6We3Pp-1">
          <mxGeometry x="85" y="120" width="60" height="30" as="geometry" />
        </mxCell>
        <mxCell id="X4MMAZx1POmpQhxmDy6j-4" value="Directors" style="text;html=1;align=center;verticalAlign=middle;whiteSpace=wrap;rounded=0;fontColor=#999999;" vertex="1" parent="8962rQQDY3VNNf6We3Pp-1">
          <mxGeometry x="160" y="120" width="60" height="30" as="geometry" />
        </mxCell>
        <mxCell id="X4MMAZx1POmpQhxmDy6j-5" value="Actors" style="text;html=1;align=center;verticalAlign=middle;whiteSpace=wrap;rounded=0;fontColor=#999999;" vertex="1" parent="8962rQQDY3VNNf6We3Pp-1">
          <mxGeometry x="240" y="120" width="60" height="30" as="geometry" />
        </mxCell>
        <mxCell id="X4MMAZx1POmpQhxmDy6j-6" value="Platforms" style="text;html=1;align=center;verticalAlign=middle;whiteSpace=wrap;rounded=0;fontColor=#FFFFFF;" vertex="1" parent="8962rQQDY3VNNf6We3Pp-1">
          <mxGeometry x="310" y="120" width="60" height="30" as="geometry" />
        </mxCell>
        <mxCell id="X4MMAZx1POmpQhxmDy6j-7" value="" style="verticalLabelPosition=bottom;shadow=0;dashed=0;align=center;html=1;verticalAlign=top;strokeWidth=1;shape=mxgraph.mockup.misc.loading_circle_1;pointerEvents=1" vertex="1" parent="8962rQQDY3VNNf6We3Pp-1">
          <mxGeometry x="85" y="330" width="240" height="240" as="geometry" />
        </mxCell>
        <mxCell id="X4MMAZx1POmpQhxmDy6j-8" value="Frankenstein" style="text;html=1;align=center;verticalAlign=middle;whiteSpace=wrap;rounded=0;fontSize=28;" vertex="1" parent="8962rQQDY3VNNf6We3Pp-1">
          <mxGeometry x="105" y="230" width="200" height="60" as="geometry" />
        </mxCell>
        <mxCell id="X4MMAZx1POmpQhxmDy6j-22" value="Avilable on:" style="shape=table;startSize=30;container=1;collapsible=0;childLayout=tableLayout;fixedRows=1;rowLines=0;fontStyle=0;strokeColor=default;fontSize=16;" vertex="1" parent="8962rQQDY3VNNf6We3Pp-1">
          <mxGeometry x="510" y="230" width="330" height="350" as="geometry" />
        </mxCell>
        <mxCell id="X4MMAZx1POmpQhxmDy6j-45" style="shape=tableRow;horizontal=0;startSize=0;swimlaneHead=0;swimlaneBody=0;top=0;left=0;bottom=0;right=0;collapsible=0;dropTarget=0;fillColor=none;points=[[0,0.5],[1,0.5]];portConstraint=eastwest;strokeColor=inherit;fontSize=16;" vertex="1" parent="X4MMAZx1POmpQhxmDy6j-22">
          <mxGeometry y="30" width="330" height="80" as="geometry" />
        </mxCell>
        <mxCell id="X4MMAZx1POmpQhxmDy6j-46" style="shape=partialRectangle;html=1;whiteSpace=wrap;connectable=0;fillColor=none;top=0;left=0;bottom=0;right=0;overflow=hidden;pointerEvents=1;strokeColor=inherit;fontSize=16;" vertex="1" parent="X4MMAZx1POmpQhxmDy6j-45">
          <mxGeometry width="150" height="80" as="geometry">
            <mxRectangle width="150" height="80" as="alternateBounds" />
          </mxGeometry>
        </mxCell>
        <mxCell id="X4MMAZx1POmpQhxmDy6j-47" value="&lt;u&gt;Disney Plus&lt;/u&gt;" style="shape=partialRectangle;html=1;whiteSpace=wrap;connectable=0;fillColor=none;top=0;left=0;bottom=0;right=0;align=center;spacingLeft=6;overflow=hidden;strokeColor=inherit;fontSize=16;" vertex="1" parent="X4MMAZx1POmpQhxmDy6j-45">
          <mxGeometry x="150" width="180" height="80" as="geometry">
            <mxRectangle width="180" height="80" as="alternateBounds" />
          </mxGeometry>
        </mxCell>
        <mxCell id="X4MMAZx1POmpQhxmDy6j-42" style="shape=tableRow;horizontal=0;startSize=0;swimlaneHead=0;swimlaneBody=0;top=0;left=0;bottom=0;right=0;collapsible=0;dropTarget=0;fillColor=none;points=[[0,0.5],[1,0.5]];portConstraint=eastwest;strokeColor=inherit;fontSize=16;" vertex="1" parent="X4MMAZx1POmpQhxmDy6j-22">
          <mxGeometry y="110" width="330" height="80" as="geometry" />
        </mxCell>
        <mxCell id="X4MMAZx1POmpQhxmDy6j-43" style="shape=partialRectangle;html=1;whiteSpace=wrap;connectable=0;fillColor=none;top=0;left=0;bottom=0;right=0;overflow=hidden;pointerEvents=1;strokeColor=inherit;fontSize=16;" vertex="1" parent="X4MMAZx1POmpQhxmDy6j-42">
          <mxGeometry width="150" height="80" as="geometry">
            <mxRectangle width="150" height="80" as="alternateBounds" />
          </mxGeometry>
        </mxCell>
        <mxCell id="X4MMAZx1POmpQhxmDy6j-44" value="&lt;u&gt;Netflix&lt;/u&gt;" style="shape=partialRectangle;html=1;whiteSpace=wrap;connectable=0;fillColor=none;top=0;left=0;bottom=0;right=0;align=center;spacingLeft=6;overflow=hidden;strokeColor=inherit;fontSize=16;" vertex="1" parent="X4MMAZx1POmpQhxmDy6j-42">
          <mxGeometry x="150" width="180" height="80" as="geometry">
            <mxRectangle width="180" height="80" as="alternateBounds" />
          </mxGeometry>
        </mxCell>
        <mxCell id="X4MMAZx1POmpQhxmDy6j-23" value="" style="shape=tableRow;horizontal=0;startSize=0;swimlaneHead=0;swimlaneBody=0;top=0;left=0;bottom=0;right=0;collapsible=0;dropTarget=0;fillColor=none;points=[[0,0.5],[1,0.5]];portConstraint=eastwest;strokeColor=inherit;fontSize=16;" vertex="1" parent="X4MMAZx1POmpQhxmDy6j-22">
          <mxGeometry y="190" width="330" height="80" as="geometry" />
        </mxCell>
        <mxCell id="X4MMAZx1POmpQhxmDy6j-24" value="" style="shape=partialRectangle;html=1;whiteSpace=wrap;connectable=0;fillColor=none;top=0;left=0;bottom=0;right=0;overflow=hidden;pointerEvents=1;strokeColor=inherit;fontSize=16;" vertex="1" parent="X4MMAZx1POmpQhxmDy6j-23">
          <mxGeometry width="150" height="80" as="geometry">
            <mxRectangle width="150" height="80" as="alternateBounds" />
          </mxGeometry>
        </mxCell>
        <mxCell id="X4MMAZx1POmpQhxmDy6j-25" value="&lt;u&gt;Prime Video&lt;/u&gt;" style="shape=partialRectangle;html=1;whiteSpace=wrap;connectable=0;fillColor=none;top=0;left=0;bottom=0;right=0;align=center;spacingLeft=6;overflow=hidden;strokeColor=inherit;fontSize=16;" vertex="1" parent="X4MMAZx1POmpQhxmDy6j-23">
          <mxGeometry x="150" width="180" height="80" as="geometry">
            <mxRectangle width="180" height="80" as="alternateBounds" />
          </mxGeometry>
        </mxCell>
        <mxCell id="X4MMAZx1POmpQhxmDy6j-26" value="" style="shape=tableRow;horizontal=0;startSize=0;swimlaneHead=0;swimlaneBody=0;top=0;left=0;bottom=0;right=0;collapsible=0;dropTarget=0;fillColor=none;points=[[0,0.5],[1,0.5]];portConstraint=eastwest;strokeColor=inherit;fontSize=16;" vertex="1" parent="X4MMAZx1POmpQhxmDy6j-22">
          <mxGeometry y="270" width="330" height="80" as="geometry" />
        </mxCell>
        <mxCell id="X4MMAZx1POmpQhxmDy6j-27" value="" style="shape=partialRectangle;html=1;whiteSpace=wrap;connectable=0;fillColor=none;top=0;left=0;bottom=0;right=0;overflow=hidden;strokeColor=inherit;fontSize=16;" vertex="1" parent="X4MMAZx1POmpQhxmDy6j-26">
          <mxGeometry width="150" height="80" as="geometry">
            <mxRectangle width="150" height="80" as="alternateBounds" />
          </mxGeometry>
        </mxCell>
        <mxCell id="X4MMAZx1POmpQhxmDy6j-28" value="&lt;u&gt;Star Plus&lt;/u&gt;" style="shape=partialRectangle;html=1;whiteSpace=wrap;connectable=0;fillColor=none;top=0;left=0;bottom=0;right=0;align=center;spacingLeft=6;overflow=hidden;strokeColor=inherit;fontSize=16;" vertex="1" parent="X4MMAZx1POmpQhxmDy6j-26">
          <mxGeometry x="150" width="180" height="80" as="geometry">
            <mxRectangle width="180" height="80" as="alternateBounds" />
          </mxGeometry>
        </mxCell>
        <mxCell id="X4MMAZx1POmpQhxmDy6j-52" value="" style="shape=image;verticalLabelPosition=bottom;labelBackgroundColor=default;verticalAlign=top;aspect=fixed;imageAspect=0;image=https://img.icons8.com/nolan/512/disney-plus.png;" vertex="1" parent="8962rQQDY3VNNf6We3Pp-1">
          <mxGeometry x="543.33" y="260" width="80" height="80" as="geometry" />
        </mxCell>
        <mxCell id="X4MMAZx1POmpQhxmDy6j-53" value="" style="shape=image;verticalLabelPosition=bottom;labelBackgroundColor=default;verticalAlign=top;aspect=fixed;imageAspect=0;image=https://1000marcas.net/wp-content/uploads/2020/01/Netflix-Logo-2006.png;" vertex="1" parent="8962rQQDY3VNNf6We3Pp-1">
          <mxGeometry x="552.08" y="360" width="62.49" height="41.66" as="geometry" />
        </mxCell>
        <mxCell id="X4MMAZx1POmpQhxmDy6j-54" value="" style="shape=image;verticalLabelPosition=bottom;labelBackgroundColor=default;verticalAlign=top;aspect=fixed;imageAspect=0;image=https://1000marcas.net/wp-content/uploads/2023/01/Amazon-Prime-Video-Log%D0%BE.png;" vertex="1" parent="8962rQQDY3VNNf6We3Pp-1">
          <mxGeometry x="530" y="430" width="106.67" height="60" as="geometry" />
        </mxCell>
        <mxCell id="X4MMAZx1POmpQhxmDy6j-55" value="" style="shape=image;verticalLabelPosition=bottom;labelBackgroundColor=default;verticalAlign=top;aspect=fixed;imageAspect=0;image=https://logodownload.org/wp-content/uploads/2021/09/star-plus-logo-0.png;" vertex="1" parent="8962rQQDY3VNNf6We3Pp-1">
          <mxGeometry x="524.33" y="480" width="118" height="118" as="geometry" />
        </mxCell>
        <mxCell id="X4MMAZx1POmpQhxmDy6j-56" value="" style="strokeWidth=1;shadow=0;dashed=0;align=center;html=1;shape=mxgraph.mockup.containers.browserWindow;rSize=0;strokeColor2=#008cff;strokeColor3=#c4c4c4;mainText=,;recursiveResize=0;strokeColor=#FFFFFF;fontColor=#FFFFFF;textShadow=1;" vertex="1" parent="1">
          <mxGeometry x="20" y="710" width="950" height="620" as="geometry" />
        </mxCell>
        <mxCell id="X4MMAZx1POmpQhxmDy6j-57" value="Arte7" style="strokeWidth=1;shadow=0;dashed=0;align=center;html=1;shape=mxgraph.mockup.containers.anchor;fontSize=17;fontColor=#666666;align=left;" vertex="1" parent="X4MMAZx1POmpQhxmDy6j-56">
          <mxGeometry x="60" y="12" width="110" height="26" as="geometry" />
        </mxCell>
        <mxCell id="X4MMAZx1POmpQhxmDy6j-58" value="https://www.arte7.com/movies/Frankenstein/Platforms" style="strokeWidth=1;shadow=0;dashed=0;align=center;html=1;shape=mxgraph.mockup.containers.anchor;rSize=0;fontSize=17;fontColor=#666666;align=left;" vertex="1" parent="X4MMAZx1POmpQhxmDy6j-56">
          <mxGeometry x="130" y="60" width="250" height="26" as="geometry" />
        </mxCell>
        <mxCell id="X4MMAZx1POmpQhxmDy6j-59" value="" style="rounded=0;whiteSpace=wrap;html=1;fillColor=#454545;fontColor=#ffffff;strokeColor=#314354;" vertex="1" parent="X4MMAZx1POmpQhxmDy6j-56">
          <mxGeometry y="110" width="950" height="50" as="geometry" />
        </mxCell>
        <mxCell id="X4MMAZx1POmpQhxmDy6j-60" value="arte7" style="text;html=1;align=center;verticalAlign=middle;whiteSpace=wrap;rounded=0;fontColor=#ffffff;" vertex="1" parent="X4MMAZx1POmpQhxmDy6j-56">
          <mxGeometry x="10" y="120" width="60" height="30" as="geometry" />
        </mxCell>
        <mxCell id="X4MMAZx1POmpQhxmDy6j-61" value="Movies&lt;span style=&quot;font-family: monospace; font-size: 0px; text-align: start; text-wrap: nowrap;&quot;&gt;%3CmxGraphModel%3E%3Croot%3E%3CmxCell%20id%3D%220%22%2F%3E%3CmxCell%20id%3D%221%22%20parent%3D%220%22%2F%3E%3CmxCell%20id%3D%222%22%20value%3D%22arte7%22%20style%3D%22text%3Bhtml%3D1%3Balign%3Dcenter%3BverticalAlign%3Dmiddle%3BwhiteSpace%3Dwrap%3Brounded%3D0%3BfontColor%3D%23ffffff%3B%22%20vertex%3D%221%22%20parent%3D%221%22%3E%3CmxGeometry%20x%3D%2220%22%20y%3D%22130%22%20width%3D%2260%22%20height%3D%2230%22%20as%3D%22geometry%22%2F%3E%3C%2FmxCell%3E%3C%2Froot%3E%3C%2FmxGraphModel%3E&lt;/span&gt;" style="text;html=1;align=center;verticalAlign=middle;whiteSpace=wrap;rounded=0;fontColor=#999999;" vertex="1" parent="X4MMAZx1POmpQhxmDy6j-56">
          <mxGeometry x="85" y="120" width="60" height="30" as="geometry" />
        </mxCell>
        <mxCell id="X4MMAZx1POmpQhxmDy6j-62" value="Directors" style="text;html=1;align=center;verticalAlign=middle;whiteSpace=wrap;rounded=0;fontColor=#999999;" vertex="1" parent="X4MMAZx1POmpQhxmDy6j-56">
          <mxGeometry x="160" y="120" width="60" height="30" as="geometry" />
        </mxCell>
        <mxCell id="X4MMAZx1POmpQhxmDy6j-63" value="Actors" style="text;html=1;align=center;verticalAlign=middle;whiteSpace=wrap;rounded=0;fontColor=#999999;" vertex="1" parent="X4MMAZx1POmpQhxmDy6j-56">
          <mxGeometry x="240" y="120" width="60" height="30" as="geometry" />
        </mxCell>
        <mxCell id="X4MMAZx1POmpQhxmDy6j-64" value="Platforms" style="text;html=1;align=center;verticalAlign=middle;whiteSpace=wrap;rounded=0;fontColor=#FFFFFF;" vertex="1" parent="X4MMAZx1POmpQhxmDy6j-56">
          <mxGeometry x="310" y="120" width="60" height="30" as="geometry" />
        </mxCell>
        <mxCell id="X4MMAZx1POmpQhxmDy6j-66" value="Netflix" style="text;html=1;align=center;verticalAlign=middle;whiteSpace=wrap;rounded=0;fontSize=28;" vertex="1" parent="X4MMAZx1POmpQhxmDy6j-56">
          <mxGeometry x="105" y="230" width="200" height="60" as="geometry" />
        </mxCell>
        <mxCell id="X4MMAZx1POmpQhxmDy6j-67" value="Details" style="shape=table;startSize=30;container=1;collapsible=0;childLayout=tableLayout;fixedRows=1;rowLines=0;fontStyle=0;strokeColor=default;fontSize=16;" vertex="1" parent="X4MMAZx1POmpQhxmDy6j-56">
          <mxGeometry x="420" y="230" width="450" height="270" as="geometry" />
        </mxCell>
        <mxCell id="X4MMAZx1POmpQhxmDy6j-68" style="shape=tableRow;horizontal=0;startSize=0;swimlaneHead=0;swimlaneBody=0;top=0;left=0;bottom=0;right=0;collapsible=0;dropTarget=0;fillColor=none;points=[[0,0.5],[1,0.5]];portConstraint=eastwest;strokeColor=inherit;fontSize=16;" vertex="1" parent="X4MMAZx1POmpQhxmDy6j-67">
          <mxGeometry y="30" width="450" height="80" as="geometry" />
        </mxCell>
        <mxCell id="X4MMAZx1POmpQhxmDy6j-69" value="Basic Subscription" style="shape=partialRectangle;html=1;whiteSpace=wrap;connectable=0;fillColor=none;top=0;left=0;bottom=0;right=0;overflow=hidden;pointerEvents=1;strokeColor=inherit;fontSize=16;" vertex="1" parent="X4MMAZx1POmpQhxmDy6j-68">
          <mxGeometry width="180" height="80" as="geometry">
            <mxRectangle width="180" height="80" as="alternateBounds" />
          </mxGeometry>
        </mxCell>
        <mxCell id="X4MMAZx1POmpQhxmDy6j-70" value="16.900 COP" style="shape=partialRectangle;html=1;whiteSpace=wrap;connectable=0;fillColor=none;top=0;left=0;bottom=0;right=0;align=center;spacingLeft=6;overflow=hidden;strokeColor=inherit;fontSize=16;" vertex="1" parent="X4MMAZx1POmpQhxmDy6j-68">
          <mxGeometry x="180" width="270" height="80" as="geometry">
            <mxRectangle width="270" height="80" as="alternateBounds" />
          </mxGeometry>
        </mxCell>
        <mxCell id="X4MMAZx1POmpQhxmDy6j-71" style="shape=tableRow;horizontal=0;startSize=0;swimlaneHead=0;swimlaneBody=0;top=0;left=0;bottom=0;right=0;collapsible=0;dropTarget=0;fillColor=none;points=[[0,0.5],[1,0.5]];portConstraint=eastwest;strokeColor=inherit;fontSize=16;" vertex="1" parent="X4MMAZx1POmpQhxmDy6j-67">
          <mxGeometry y="110" width="450" height="80" as="geometry" />
        </mxCell>
        <mxCell id="X4MMAZx1POmpQhxmDy6j-72" value="Payment Methods" style="shape=partialRectangle;html=1;whiteSpace=wrap;connectable=0;fillColor=none;top=0;left=0;bottom=0;right=0;overflow=hidden;pointerEvents=1;strokeColor=inherit;fontSize=16;" vertex="1" parent="X4MMAZx1POmpQhxmDy6j-71">
          <mxGeometry width="180" height="80" as="geometry">
            <mxRectangle width="180" height="80" as="alternateBounds" />
          </mxGeometry>
        </mxCell>
        <mxCell id="X4MMAZx1POmpQhxmDy6j-73" value="&lt;u&gt;Gift Card, Debit Card, Credit Card&lt;/u&gt;" style="shape=partialRectangle;html=1;whiteSpace=wrap;connectable=0;fillColor=none;top=0;left=0;bottom=0;right=0;align=center;spacingLeft=6;overflow=hidden;strokeColor=inherit;fontSize=16;" vertex="1" parent="X4MMAZx1POmpQhxmDy6j-71">
          <mxGeometry x="180" width="270" height="80" as="geometry">
            <mxRectangle width="270" height="80" as="alternateBounds" />
          </mxGeometry>
        </mxCell>
        <mxCell id="X4MMAZx1POmpQhxmDy6j-74" value="" style="shape=tableRow;horizontal=0;startSize=0;swimlaneHead=0;swimlaneBody=0;top=0;left=0;bottom=0;right=0;collapsible=0;dropTarget=0;fillColor=none;points=[[0,0.5],[1,0.5]];portConstraint=eastwest;strokeColor=inherit;fontSize=16;" vertex="1" parent="X4MMAZx1POmpQhxmDy6j-67">
          <mxGeometry y="190" width="450" height="80" as="geometry" />
        </mxCell>
        <mxCell id="X4MMAZx1POmpQhxmDy6j-75" value="Watch on&amp;nbsp;" style="shape=partialRectangle;html=1;whiteSpace=wrap;connectable=0;fillColor=none;top=0;left=0;bottom=0;right=0;overflow=hidden;pointerEvents=1;strokeColor=inherit;fontSize=16;" vertex="1" parent="X4MMAZx1POmpQhxmDy6j-74">
          <mxGeometry width="180" height="80" as="geometry">
            <mxRectangle width="180" height="80" as="alternateBounds" />
          </mxGeometry>
        </mxCell>
        <mxCell id="X4MMAZx1POmpQhxmDy6j-76" value="&lt;u&gt;TV, Tablet, Phone&lt;/u&gt;" style="shape=partialRectangle;html=1;whiteSpace=wrap;connectable=0;fillColor=none;top=0;left=0;bottom=0;right=0;align=center;spacingLeft=6;overflow=hidden;strokeColor=inherit;fontSize=16;" vertex="1" parent="X4MMAZx1POmpQhxmDy6j-74">
          <mxGeometry x="180" width="270" height="80" as="geometry">
            <mxRectangle width="270" height="80" as="alternateBounds" />
          </mxGeometry>
        </mxCell>
        <mxCell id="X4MMAZx1POmpQhxmDy6j-81" value="" style="shape=image;verticalLabelPosition=bottom;labelBackgroundColor=default;verticalAlign=top;aspect=fixed;imageAspect=0;image=https://1000marcas.net/wp-content/uploads/2020/01/Netflix-Logo-2006.png;" vertex="1" parent="X4MMAZx1POmpQhxmDy6j-56">
          <mxGeometry x="31" y="284.16999999999996" width="362.49" height="241.66" as="geometry" />
        </mxCell>
        <mxCell id="X4MMAZx1POmpQhxmDy6j-84" value="HU09" style="text;html=1;align=center;verticalAlign=middle;whiteSpace=wrap;rounded=0;" vertex="1" parent="1">
          <mxGeometry x="380" y="10" width="60" height="30" as="geometry" />
        </mxCell>
        <mxCell id="X4MMAZx1POmpQhxmDy6j-85" value="HU10" style="text;html=1;align=center;verticalAlign=middle;whiteSpace=wrap;rounded=0;" vertex="1" parent="1">
          <mxGeometry x="420" y="680" width="60" height="30" as="geometry" />
        </mxCell>
        <mxCell id="X4MMAZx1POmpQhxmDy6j-86" value="Página Principal" style="text;html=1;align=center;verticalAlign=middle;whiteSpace=wrap;rounded=0;" vertex="1" parent="1">
          <mxGeometry x="1560" y="10" width="110" height="30" as="geometry" />
        </mxCell>
      </root>
    </mxGraphModel>
  </diagram>
</mxfile>
